<?xml version="1.0" standalone="no"?>
<!DOCTYPE svg PUBLIC "-//W3C//DTD SVG 20010904//EN"
 "http://www.w3.org/TR/2001/REC-SVG-20010904/DTD/svg10.dtd">
<svg version="1.0" xmlns="http://www.w3.org/2000/svg"
 width="700.000000pt" height="700.000000pt" viewBox="0 0 700.000000 700.000000"
 preserveAspectRatio="xMidYMid meet">
<metadata>
Created by potrace 1.11, written by Peter Selinger 2001-2013
</metadata>
<g transform="translate(0.000000,700.000000) scale(0.100000,-0.100000)"
fill="#000000" stroke="none">
<path d="M771 5196 l0 -94 47 -17 c80 -29 137 -74 183 -144 58 -88 94 -189
174 -491 49 -181 80 -297 205 -760 61 -228 122 -458 136 -510 13 -52 31 -117
39 -145 12 -41 70 -254 79 -290 6 -24 22 -83 77 -285 31 -118 74 -276 93 -350
20 -74 52 -193 71 -265 20 -71 37 -137 39 -145 6 -22 76 -282 82 -303 5 -16
29 -17 362 -15 l357 3 52 185 c28 102 57 201 63 220 10 33 77 268 85 300 2 8
49 173 105 365 55 193 102 357 104 365 3 8 27 96 56 195 28 99 53 187 55 195
2 8 20 71 40 140 20 69 38 132 40 140 3 15 153 537 158 554 2 4 24 -81 50
-190 26 -110 51 -212 56 -229 5 -16 19 -73 30 -125 12 -52 26 -111 32 -130 5
-19 27 -111 49 -205 22 -93 43 -181 47 -195 9 -34 8 -30 18 -75 4 -22 9 -44
11 -50 1 -5 36 -149 77 -320 42 -170 85 -350 97 -400 12 -49 23 -97 25 -105 9
-42 144 -600 151 -622 5 -17 30 -18 345 -18 186 0 339 1 339 3 0 2 41 122 90
267 50 146 114 333 141 415 28 83 55 159 59 170 5 11 22 61 39 110 35 105 126
374 276 810 181 528 256 746 286 840 17 50 33 97 36 105 3 8 38 110 78 225
167 483 207 569 307 667 51 50 97 78 163 98 l40 12 -1 91 -2 92 -593 0 -593 0
-1 -92 c0 -57 3 -93 10 -94 65 -7 85 -12 129 -32 106 -49 148 -127 148 -274 1
-157 -35 -300 -215 -873 -30 -96 -105 -337 -167 -535 -104 -335 -165 -530
-271 -865 -24 -76 -45 -126 -47 -115 -2 11 -14 65 -27 120 -13 55 -26 111 -29
125 -3 14 -7 34 -10 45 -2 11 -32 142 -66 290 -34 149 -80 347 -102 440 -21
94 -41 179 -43 190 -3 11 -18 79 -35 150 -16 72 -55 240 -85 375 -54 237 -83
360 -125 541 -12 48 -22 95 -24 105 -2 11 -22 100 -45 199 -23 99 -44 191 -47
205 -3 14 -9 42 -15 62 l-10 37 -318 0 -319 0 -10 -27 c-10 -25 -36 -115 -83
-287 -11 -38 -21 -77 -23 -85 -4 -15 -117 -414 -156 -550 -11 -41 -23 -82 -25
-90 -2 -8 -11 -40 -20 -70 -9 -30 -18 -63 -20 -73 -2 -10 -40 -145 -84 -300
-159 -560 -354 -1254 -377 -1337 -12 -47 -25 -78 -28 -70 -3 8 -39 155 -81
325 -42 171 -155 625 -251 1010 -209 834 -209 834 -233 1012 -11 76 -4 148 18
199 32 72 82 109 190 139 l76 21 1 79 c0 44 -2 86 -4 92 -3 10 -172 13 -767
13 l-764 0 0 -94z"/>
</g>
</svg>
